<svg width="30" height="31" viewBox="0 0 30 31" fill="none" xmlns="http://www.w3.org/2000/svg">
<rect width="24.2857" height="24.2857" rx="6" fill="#BEEFD1"/>
<path d="M25.5461 16.832C24.5508 15.3695 23.2152 14.1965 21.6512 13.4094C21.6664 13.3129 21.6715 13.2164 21.6715 13.1199C21.6715 12.668 21.5344 12.2414 21.2957 11.891C22.357 10.0375 22.352 8.14336 22.2453 6.20352C22.2301 5.90898 22.0523 5.64492 21.7883 5.51797C21.5242 5.39102 21.2094 5.41641 20.9656 5.58398L18.4672 7.34609L17.7207 5.50781C17.5938 5.20312 17.2992 5 16.9691 5C16.6391 5 16.3395 5.19805 16.2176 5.50781L15.4711 7.35117L12.9727 5.58906C12.7289 5.41641 12.4141 5.39102 12.15 5.52305C11.8859 5.65 11.7082 5.91406 11.693 6.20859C11.5863 8.16367 11.5863 10.0781 12.673 11.9469C12.4598 12.2871 12.3328 12.6883 12.3328 13.1199C12.3328 13.2164 12.3379 13.318 12.3531 13.4094C10.7891 14.1965 9.45352 15.3695 8.4582 16.832C7.29023 18.5484 6.67578 20.5543 6.67578 22.6313C6.67578 24.2664 7.04648 25.8254 7.77773 27.2777C8.47344 28.659 9.49414 29.8879 10.723 30.8324C10.8652 30.9391 11.0379 31 11.2156 31H22.7887C22.9664 31 23.1391 30.9391 23.2812 30.8324C24.5102 29.8879 25.5309 28.659 26.2266 27.2777C26.9578 25.8305 27.3285 24.2664 27.3285 22.6313C27.3285 20.5543 26.7141 18.5434 25.5461 16.832ZM13.9527 13.1148C13.9527 12.9371 14.034 12.7797 14.1609 12.673C14.166 12.673 14.166 12.668 14.1711 12.668C14.2676 12.5918 14.3945 12.541 14.5266 12.541H19.4727C19.5895 12.541 19.7012 12.5766 19.7926 12.6375C19.7977 12.6426 19.8027 12.6477 19.8129 12.6527C19.8129 12.6527 19.818 12.6527 19.818 12.6578C19.9602 12.7645 20.0516 12.927 20.0516 13.1148C20.0516 13.4297 19.7926 13.6887 19.4777 13.6887H14.5316C14.2117 13.6887 13.9527 13.4297 13.9527 13.1148ZM15.3645 9.26562C15.5676 9.40781 15.8215 9.45352 16.0602 9.38242C16.2988 9.31133 16.4918 9.13867 16.5832 8.91016L16.9641 7.97578L17.3449 8.91016C17.4363 9.13867 17.6293 9.31641 17.868 9.38242C18.1066 9.45352 18.3605 9.40781 18.5637 9.26562L20.666 7.78281C20.6559 8.92031 20.4934 9.95625 19.9449 10.9719C19.7926 10.9363 19.6301 10.9211 19.4676 10.9211H14.5215C14.3387 10.9211 14.1609 10.9465 13.9883 10.9871C13.4348 9.97148 13.2723 8.93047 13.2621 7.78789L15.3645 9.26562ZM22.5043 29.375H11.4949C9.45859 27.7145 8.2957 25.2719 8.2957 22.6313C8.2957 19.2898 10.1797 16.2836 13.1453 14.8211C13.5211 15.1258 14.0035 15.3086 14.5266 15.3086H19.4727C19.9957 15.3086 20.473 15.1258 20.8539 14.8211C23.8195 16.2836 25.7035 19.2898 25.7035 22.6313C25.7035 25.2719 24.5406 27.7145 22.5043 29.375ZM15.7402 20.0414C15.7148 20.4527 16.8676 21.118 17.5582 21.5141C18.7414 22.1945 19.9602 22.9004 19.884 24.0836C19.8383 24.7844 19.5184 25.4344 18.9852 25.9066C18.65 26.2012 18.2488 26.4094 17.8121 26.5211V27.359C17.8121 27.8059 17.4465 28.1715 16.9996 28.1715C16.5527 28.1715 16.1871 27.8059 16.1871 27.359V26.4805C14.9887 26.1047 14.1102 24.9824 14.1102 23.6621C14.1102 23.2152 14.4758 22.8496 14.9227 22.8496C15.3695 22.8496 15.7352 23.2152 15.7352 23.6621C15.7352 24.3934 16.3293 24.9926 17.0656 24.9926C17.7004 24.9926 18.2133 24.5711 18.259 24.0023C18.2437 23.9668 18.1625 23.8398 17.8629 23.6164C17.5633 23.393 17.1621 23.1645 16.7406 22.9207C15.466 22.1844 14.0238 21.3566 14.1152 19.9348C14.1609 19.234 14.4809 18.584 15.0141 18.1117C15.3492 17.8172 15.7504 17.609 16.1871 17.4973V16.6594C16.1871 16.2125 16.5527 15.8469 16.9996 15.8469C17.4465 15.8469 17.8121 16.2125 17.8121 16.6594V17.543C19.0105 17.9187 19.8891 19.041 19.8891 20.3613C19.8891 20.8082 19.5234 21.1738 19.0766 21.1738C18.6297 21.1738 18.2641 20.8082 18.2641 20.3613C18.2641 19.6301 17.6699 19.0309 16.9336 19.0309C16.2887 19.0359 15.7758 19.4676 15.7402 20.0414Z" fill="#23C55E"/>
</svg>
