<svg width="30" height="31" viewBox="0 0 30 31" fill="none" xmlns="http://www.w3.org/2000/svg">
<rect width="24.2857" height="24.2857" rx="6" fill="#BEEFD1"/>
<path fill-rule="evenodd" clip-rule="evenodd" d="M21.4059 9.12516V28.9168C21.4059 29.3481 21.0559 29.6981 20.6247 29.6981H8.12467C7.64134 29.6981 7.1778 29.5064 6.83613 29.1637C6.49342 28.822 6.30176 28.3585 6.30176 27.8752V9.12516C6.30176 8.64183 6.49342 8.17829 6.83613 7.83662C7.1778 7.49391 7.64134 7.30225 8.12467 7.30225H19.583C20.0663 7.30225 20.5299 7.49391 20.8716 7.83662C21.2143 8.17829 21.4059 8.64183 21.4059 9.12516ZM19.8434 9.12516C19.8434 9.05641 19.8163 8.98975 19.7674 8.94079C19.7184 8.89183 19.6518 8.86475 19.583 8.86475H8.12467C8.05592 8.86475 7.98926 8.89183 7.9403 8.94079C7.89134 8.98975 7.86426 9.05641 7.86426 9.12516V27.8752C7.86426 27.9439 7.89134 28.0106 7.9403 28.0595C7.98926 28.1085 8.05592 28.1356 8.12467 28.1356H19.8434V9.12516Z" fill="#23C55E"/>
<path fill-rule="evenodd" clip-rule="evenodd" d="M17.2396 22.1458V28.9167C17.2396 29.3479 16.8896 29.6979 16.4583 29.6979H11.25C10.8188 29.6979 10.4688 29.3479 10.4688 28.9167V22.1458C10.4688 21.8 10.6063 21.4698 10.85 21.225C11.0948 20.9813 11.426 20.8438 11.7708 20.8438H15.9375C16.2823 20.8438 16.6135 20.9813 16.8583 21.225C17.1021 21.4698 17.2396 21.8 17.2396 22.1458ZM12.0313 22.4063V28.1354H15.6771V22.4063H12.0313Z" fill="#23C55E"/>
<path fill-rule="evenodd" clip-rule="evenodd" d="M28.6979 15.3752V27.8752C28.6979 28.8825 27.8813 29.6981 26.875 29.6981H20.625C20.1938 29.6981 19.8438 29.3481 19.8438 28.9168V14.3335C19.8438 13.9022 20.1938 13.5522 20.625 13.5522H26.875C27.8813 13.5522 28.6979 14.3679 28.6979 15.3752ZM27.1354 15.3752C27.1354 15.2314 27.0188 15.1147 26.875 15.1147H21.4063V28.1356H26.875C27.0188 28.1356 27.1354 28.0189 27.1354 27.8752V15.3752Z" fill="#23C55E"/>
<path fill-rule="evenodd" clip-rule="evenodd" d="M9.94727 10.6875H11.5098V12.25H9.94727V10.6875Z" fill="#23C55E"/>
<path fill-rule="evenodd" clip-rule="evenodd" d="M9.94727 14.3335H11.5098V15.896H9.94727V14.3335Z" fill="#23C55E"/>
<path fill-rule="evenodd" clip-rule="evenodd" d="M9.94727 17.9795H11.5098V19.542H9.94727V17.9795Z" fill="#23C55E"/>
<path fill-rule="evenodd" clip-rule="evenodd" d="M13.0723 10.6875H14.6348V12.25H13.0723V10.6875Z" fill="#23C55E"/>
<path fill-rule="evenodd" clip-rule="evenodd" d="M13.0723 14.3335H14.6348V15.896H13.0723V14.3335Z" fill="#23C55E"/>
<path fill-rule="evenodd" clip-rule="evenodd" d="M13.0723 17.9795H14.6348V19.542H13.0723V17.9795Z" fill="#23C55E"/>
<path fill-rule="evenodd" clip-rule="evenodd" d="M16.1973 10.6875H17.7598V12.25H16.1973V10.6875Z" fill="#23C55E"/>
<path fill-rule="evenodd" clip-rule="evenodd" d="M23.4893 17.1982H25.0518V18.7607H23.4893V17.1982Z" fill="#23C55E"/>
<path fill-rule="evenodd" clip-rule="evenodd" d="M23.4893 20.8438H25.0518V22.4062H23.4893V20.8438Z" fill="#23C55E"/>
<path fill-rule="evenodd" clip-rule="evenodd" d="M23.4893 24.4897H25.0518V26.0522H23.4893V24.4897Z" fill="#23C55E"/>
<path fill-rule="evenodd" clip-rule="evenodd" d="M16.1973 14.3335H17.7598V15.896H16.1973V14.3335Z" fill="#23C55E"/>
<path fill-rule="evenodd" clip-rule="evenodd" d="M16.1973 17.9795H17.7598V19.542H16.1973V17.9795Z" fill="#23C55E"/>
</svg>
