<svg width="27" height="16" viewBox="0 0 27 16" fill="none" xmlns="http://www.w3.org/2000/svg">
<g filter="url(#filter0_d_498_26011)">
<path d="M3.66366 2.49497C3.45933 2.30922 3.44428 1.99299 3.63003 1.78866C3.81578 1.58433 4.13201 1.56928 4.33634 1.75503L3.66366 2.49497ZM8.75635 6.44895L9.09269 6.07898V6.07898L8.75635 6.44895ZM10.1723 6.37798L10.544 6.71246L10.1723 6.37798ZM13.3455 2.85219L12.9739 2.51771V2.51771L13.3455 2.85219ZM14.7413 2.76338L14.4151 3.14227L14.7413 2.76338ZM23.4986 9.83779C23.5192 10.1132 23.3126 10.3531 23.0372 10.3736L18.5497 10.7085C18.2743 10.7291 18.0344 10.5225 18.0139 10.2471C17.9933 9.97172 18.1999 9.73183 18.4753 9.71128L22.4642 9.4136L22.1665 5.42469C22.1459 5.14931 22.3525 4.90942 22.6279 4.88886C22.9033 4.86831 23.1432 5.07489 23.1637 5.35027L23.4986 9.83779ZM4.33634 1.75503L9.09269 6.07898L8.42001 6.81892L3.66366 2.49497L4.33634 1.75503ZM9.80067 6.0435L12.9739 2.51771L13.7172 3.18667L10.544 6.71246L9.80067 6.0435ZM15.0676 2.3845L23.3263 9.49612L22.6737 10.2539L14.4151 3.14227L15.0676 2.3845ZM12.9739 2.51771C13.5195 1.91146 14.4496 1.85229 15.0676 2.3845L14.4151 3.14227C14.2091 2.96486 13.8991 2.98459 13.7172 3.18667L12.9739 2.51771ZM9.09269 6.07898C9.29774 6.2654 9.61529 6.24948 9.80067 6.0435L10.544 6.71246C9.98782 7.33041 9.03517 7.37816 8.42001 6.81892L9.09269 6.07898Z" fill="#F55F5F"/>
</g>
<defs>
<filter id="filter0_d_498_26011" x="0.5" y="0.625" width="26" height="15.085" filterUnits="userSpaceOnUse" color-interpolation-filters="sRGB">
<feFlood flood-opacity="0" result="BackgroundImageFix"/>
<feColorMatrix in="SourceAlpha" type="matrix" values="0 0 0 0 0 0 0 0 0 0 0 0 0 0 0 0 0 0 127 0" result="hardAlpha"/>
<feOffset dy="2"/>
<feGaussianBlur stdDeviation="1.5"/>
<feComposite in2="hardAlpha" operator="out"/>
<feColorMatrix type="matrix" values="0 0 0 0 1 0 0 0 0 0.278431 0 0 0 0 0.278431 0 0 0 0.3 0"/>
<feBlend mode="normal" in2="BackgroundImageFix" result="effect1_dropShadow_498_26011"/>
<feBlend mode="normal" in="SourceGraphic" in2="effect1_dropShadow_498_26011" result="shape"/>
</filter>
</defs>
</svg>
