<svg width="53" height="53" viewBox="0 0 53 53" fill="none" xmlns="http://www.w3.org/2000/svg">
<rect width="53" height="53" rx="26.5" fill="#101214"/>
<g clip-path="url(#clip0_83_13893)">
<path fill-rule="evenodd" clip-rule="evenodd" d="M30.1112 21.0954C29.0423 20.3812 27.7856 20 26.5 20V13.5C29.0711 13.5 31.5846 14.2624 33.7224 15.6909C35.8603 17.1193 37.5265 19.1497 38.5104 21.5251C39.4943 23.9005 39.7518 26.5144 39.2502 29.0362C38.7486 31.5579 37.5105 33.8743 35.6924 35.6924C33.8743 37.5105 31.5579 38.7486 29.0362 39.2502C26.5144 39.7518 23.9005 39.4943 21.5251 38.5104C19.1497 37.5265 17.1193 35.8603 15.6909 33.7224C14.2624 31.5846 13.5 29.0711 13.5 26.5H20C20 27.7856 20.3812 29.0423 21.0954 30.1112C21.8097 31.1801 22.8248 32.0132 24.0126 32.5052C25.2003 32.9972 26.5072 33.1259 27.7681 32.8751C29.029 32.6243 30.1871 32.0052 31.0962 31.0962C32.0052 30.1871 32.6243 29.029 32.8751 27.7681C33.1259 26.5072 32.9972 25.2003 32.5052 24.0126C32.0132 22.8248 31.1801 21.8097 30.1112 21.0954Z" fill="#C7CBD1"/>
<path fill-rule="evenodd" clip-rule="evenodd" d="M20 13.5C20 14.3536 19.8319 15.1988 19.5052 15.9874C19.1786 16.7761 18.6998 17.4926 18.0962 18.0962C17.4926 18.6998 16.7761 19.1786 15.9874 19.5052C15.1988 19.8319 14.3536 20 13.5 20L13.5 26.5C15.2072 26.5 16.8977 26.1638 18.4749 25.5104C20.0521 24.8571 21.4852 23.8995 22.6924 22.6924C23.8995 21.4853 24.8571 20.0521 25.5104 18.4749C26.1638 16.8977 26.5 15.2072 26.5 13.5L20 13.5Z" fill="#C7CBD1"/>
</g>
<defs>
<clipPath id="clip0_83_13893">
<rect width="26" height="26" fill="white" transform="translate(13.5 13.5)"/>
</clipPath>
</defs>
</svg>
