<svg width="34" height="34" viewBox="0 0 34 34" fill="none" xmlns="http://www.w3.org/2000/svg">
<rect width="24.2857" height="24.2857" rx="6" fill="#BEEFD1"/>
<path fill-rule="evenodd" clip-rule="evenodd" d="M18.643 9.4103C13.1103 9.4103 8.62514 13.8954 8.62514 19.4282C8.62514 24.9608 13.1103 29.446 18.643 29.446C24.1756 29.446 28.6609 24.9608 28.6609 19.4282C28.6609 18.3977 28.5055 17.4053 28.2178 16.472C28.0696 15.9913 28.3391 15.4815 28.8197 15.3333C29.3003 15.1851 29.8102 15.4546 29.9583 15.9352C30.2992 17.0405 30.4823 18.2137 30.4823 19.4282C30.4823 25.9668 25.1817 31.2674 18.643 31.2674C12.1043 31.2674 6.80371 25.9668 6.80371 19.4282C6.80371 12.8895 12.1043 7.58887 18.643 7.58887C19.4819 7.58887 20.3016 7.67628 21.0928 7.84281C21.585 7.94641 21.9 8.4294 21.7964 8.92158C21.6928 9.41377 21.2098 9.72879 20.7176 9.62519C20.049 9.48446 19.3552 9.4103 18.643 9.4103ZM27.092 8.05208C27.4613 7.71049 28.0374 7.73287 28.379 8.10206L30.6261 10.5306C30.9491 10.8797 30.9491 11.4186 30.6261 11.7676L28.379 14.1962C28.0374 14.5654 27.4613 14.5878 27.092 14.2462C26.7229 13.9046 26.7005 13.3284 27.0421 12.9592L27.8741 12.06H23.8863C23.3833 12.06 22.9756 11.6522 22.9756 11.1493C22.9756 10.6463 23.3833 10.2385 23.8863 10.2385H27.8744L27.0421 9.33907C26.7005 8.96987 26.7229 8.39367 27.092 8.05208ZM18.643 11.2317C19.146 11.2317 19.5537 11.6395 19.5537 12.1424V13.6874H19.5863C21.4544 13.6874 22.9689 15.2019 22.9689 17.07C22.9689 17.5731 22.5611 17.9807 22.0582 17.9807C21.5552 17.9807 21.1475 17.5731 21.1475 17.07C21.1475 16.2078 20.4485 15.5088 19.5863 15.5088H19.5537V18.5337H19.6513C21.4836 18.5337 22.9689 20.019 22.9689 21.8513C22.9689 23.6836 21.4836 25.1689 19.6513 25.1689H19.5537V26.7139C19.5537 27.2168 19.146 27.6246 18.643 27.6246C18.14 27.6246 17.7323 27.2168 17.7323 26.7139V25.1689H17.6347C15.8024 25.1689 14.3171 23.6836 14.3171 21.8513C14.3171 21.3483 14.7248 20.9405 15.2278 20.9405C15.7308 20.9405 16.1385 21.3483 16.1385 21.8513C16.1385 22.6776 16.8083 23.3475 17.6347 23.3475H17.7323V20.3551H17.6509C15.8097 20.3551 14.3171 18.8625 14.3171 17.0213C14.3171 15.18 15.8097 13.6874 17.6509 13.6874H17.7323V12.1424C17.7323 11.6395 18.14 11.2317 18.643 11.2317ZM17.7323 15.5088H17.6509C16.8156 15.5088 16.1385 16.186 16.1385 17.0213C16.1385 17.8565 16.8156 18.5337 17.6509 18.5337H17.7323V15.5088ZM19.5537 20.3551V23.3475H19.6513C20.4777 23.3475 21.1475 22.6776 21.1475 21.8513C21.1475 21.0249 20.4777 20.3551 19.6513 20.3551H19.5537Z" fill="#23C55E"/>
</svg>
