<svg width="30" height="30" viewBox="0 0 30 30" fill="none" xmlns="http://www.w3.org/2000/svg">
<rect width="24.2857" height="24.2857" rx="6" fill="#BEEFD1"/>
<g clip-path="url(#clip0_21_11218)">
<path d="M17.4646 5.68311C15.4878 5.69025 13.5442 6.19224 11.8112 7.14327C10.0782 8.09429 8.61085 9.4641 7.54307 11.1277L7.01291 8.60317C6.98971 8.49266 6.94496 8.38781 6.88123 8.29459C6.8175 8.20137 6.73603 8.12162 6.64148 8.05989C6.54693 7.99816 6.44114 7.95565 6.33016 7.9348C6.21919 7.91395 6.10519 7.91517 5.99468 7.93837C5.88417 7.96158 5.77931 8.00633 5.68609 8.07006C5.59288 8.13379 5.51313 8.21526 5.45139 8.30981C5.38966 8.40436 5.34716 8.51014 5.32631 8.62112C5.30546 8.7321 5.30667 8.8461 5.32988 8.95661L6.35653 13.7953C6.36705 13.8277 6.38116 13.8587 6.39861 13.8879C6.40802 13.9326 6.42511 13.9753 6.4491 14.0141C6.47784 14.0677 6.51165 14.1185 6.55008 14.1656L6.63423 14.2498C6.69558 14.3071 6.76688 14.3527 6.84461 14.3844C6.84461 14.3844 6.84461 14.3844 6.88669 14.3844C6.9779 14.4206 7.07473 14.4405 7.1728 14.4433H7.23171H7.34952L12.2303 13.4251C12.3461 13.4109 12.4576 13.3729 12.5579 13.3134C12.6581 13.2539 12.7449 13.1743 12.8128 13.0794C12.8806 12.9846 12.928 12.8767 12.952 12.7626C12.9759 12.6485 12.9759 12.5307 12.9519 12.4166C12.9279 12.3025 12.8805 12.1946 12.8126 12.0998C12.7447 12.005 12.6579 11.9254 12.5576 11.8659C12.4573 11.8065 12.3458 11.7685 12.2301 11.7544C12.1143 11.7403 11.9969 11.7504 11.8853 11.7841L8.69595 12.4573C9.91209 10.3282 11.8614 8.71426 14.18 7.91672C16.4987 7.11919 19.0283 7.19254 21.2969 8.12308C23.5654 9.05362 25.4179 10.7778 26.5087 12.9738C27.5994 15.1698 27.8538 17.6877 27.2245 20.0576C26.5952 22.4274 25.1252 24.4874 23.0886 25.853C21.0521 27.2186 18.5883 27.7965 16.157 27.479C13.7256 27.1615 11.4929 25.9703 9.87532 24.1275C8.25779 22.2847 7.36599 19.9163 7.36635 17.4644C7.36635 17.2412 7.27769 17.0271 7.11988 16.8693C6.96206 16.7115 6.74802 16.6228 6.52483 16.6228C6.30165 16.6228 6.08761 16.7115 5.92979 16.8693C5.77198 17.0271 5.68332 17.2412 5.68332 17.4644C5.68332 19.7945 6.37427 22.0722 7.66881 24.0097C8.96336 25.9471 10.8033 27.4571 12.9561 28.3488C15.1088 29.2405 17.4776 29.4738 19.763 29.0192C22.0483 28.5646 24.1475 27.4426 25.7952 25.795C27.4428 24.1473 28.5649 22.0481 29.0194 19.7628C29.474 17.4774 29.2407 15.1086 28.349 12.9559C27.4573 10.8031 25.9473 8.96314 24.0099 7.6686C22.0725 6.37406 19.7947 5.68311 17.4646 5.68311Z" fill="#23C55E"/>
<path d="M17.4647 21.6719C17.0183 21.6719 16.5902 21.4946 16.2746 21.1789C15.959 20.8633 15.7817 20.4352 15.7817 19.9888C15.7817 19.7657 15.693 19.5516 15.5352 19.3938C15.3774 19.236 15.1633 19.1473 14.9402 19.1473C14.717 19.1473 14.5029 19.236 14.3451 19.3938C14.1873 19.5516 14.0986 19.7657 14.0986 19.9888C14.101 20.7332 14.3501 21.4558 14.8069 22.0435C15.2637 22.6313 15.9024 23.051 16.6232 23.2371V24.1964C16.6232 24.4196 16.7118 24.6337 16.8697 24.7915C17.0275 24.9493 17.2415 25.0379 17.4647 25.0379C17.6879 25.0379 17.9019 24.9493 18.0597 24.7915C18.2176 24.6337 18.3062 24.4196 18.3062 24.1964V23.2371C19.027 23.051 19.6657 22.6313 20.1225 22.0435C20.5793 21.4558 20.8284 20.7332 20.8308 19.9888C20.8308 17.8682 19.4843 17.2539 17.734 16.6648C15.9836 16.0758 15.7817 15.4699 15.7817 14.9397C15.7817 14.4934 15.959 14.0653 16.2746 13.7496C16.5902 13.434 17.0183 13.2567 17.4647 13.2567C17.9111 13.2567 18.3392 13.434 18.6548 13.7496C18.9704 14.0653 19.1477 14.4934 19.1477 14.9397C19.1477 15.1629 19.2364 15.377 19.3942 15.5348C19.552 15.6926 19.7661 15.7812 19.9893 15.7812C20.2124 15.7812 20.4265 15.6926 20.5843 15.5348C20.7421 15.377 20.8308 15.1629 20.8308 14.9397C20.8284 14.1954 20.5793 13.4728 20.1225 12.885C19.6657 12.2973 19.027 11.8776 18.3062 11.6915V10.7321C18.3062 10.509 18.2176 10.2949 18.0597 10.1371C17.9019 9.97928 17.6879 9.89062 17.4647 9.89062C17.2415 9.89062 17.0275 9.97928 16.8697 10.1371C16.7118 10.2949 16.6232 10.509 16.6232 10.7321V11.6915C15.9024 11.8776 15.2637 12.2973 14.8069 12.885C14.3501 13.4728 14.101 14.1954 14.0986 14.9397C14.0986 17.2287 16.4296 18.0113 17.1954 18.2637C19.072 18.8865 19.1477 19.2231 19.1477 19.9888C19.1477 20.4352 18.9704 20.8633 18.6548 21.1789C18.3392 21.4946 17.9111 21.6719 17.4647 21.6719Z" fill="#23C55E"/>
</g>
<defs>
<clipPath id="clip0_21_11218">
<rect width="26" height="26" fill="white" transform="translate(4 4)"/>
</clipPath>
</defs>
</svg>
