<svg width="27" height="16" viewBox="0 0 27 16" fill="none" xmlns="http://www.w3.org/2000/svg">
<g filter="url(#filter0_d_498_26096)">
<path d="M3.66366 9.50503C3.45933 9.69078 3.44428 10.007 3.63003 10.2113C3.81578 10.4157 4.13201 10.4307 4.33634 10.245L3.66366 9.50503ZM8.75635 5.55105L9.09269 5.92102V5.92102L8.75635 5.55105ZM10.1723 5.62202L10.544 5.28754L10.1723 5.62202ZM13.3455 9.14781L12.9739 9.48229V9.48229L13.3455 9.14781ZM14.7413 9.23662L14.4151 8.85773L14.7413 9.23662ZM23.4986 2.16221C23.5192 1.88683 23.3126 1.64694 23.0372 1.62639L18.5497 1.2915C18.2743 1.27095 18.0344 1.47752 18.0139 1.7529C17.9933 2.02828 18.1999 2.26817 18.4753 2.28872L22.4642 2.5864L22.1665 6.57531C22.1459 6.85069 22.3525 7.09058 22.6279 7.11114C22.9033 7.13169 23.1432 6.92511 23.1637 6.64973L23.4986 2.16221ZM4.33634 10.245L9.09269 5.92102L8.42001 5.18108L3.66366 9.50503L4.33634 10.245ZM9.80067 5.9565L12.9739 9.48229L13.7172 8.81333L10.544 5.28754L9.80067 5.9565ZM15.0676 9.6155L23.3263 2.50388L22.6737 1.74612L14.4151 8.85773L15.0676 9.6155ZM12.9739 9.48229C13.5195 10.0885 14.4496 10.1477 15.0676 9.6155L14.4151 8.85773C14.2091 9.03514 13.8991 9.01541 13.7172 8.81333L12.9739 9.48229ZM9.09269 5.92102C9.29774 5.7346 9.61529 5.75052 9.80067 5.9565L10.544 5.28754C9.98782 4.66959 9.03517 4.62184 8.42001 5.18108L9.09269 5.92102Z" fill="#27C661"/>
</g>
<defs>
<filter id="filter0_d_498_26096" x="0.5" y="0.290039" width="26" height="15.085" filterUnits="userSpaceOnUse" color-interpolation-filters="sRGB">
<feFlood flood-opacity="0" result="BackgroundImageFix"/>
<feColorMatrix in="SourceAlpha" type="matrix" values="0 0 0 0 0 0 0 0 0 0 0 0 0 0 0 0 0 0 127 0" result="hardAlpha"/>
<feOffset dy="2"/>
<feGaussianBlur stdDeviation="1.5"/>
<feComposite in2="hardAlpha" operator="out"/>
<feColorMatrix type="matrix" values="0 0 0 0 0.152941 0 0 0 0 0.776471 0 0 0 0 0.380392 0 0 0 0.3 0"/>
<feBlend mode="normal" in2="BackgroundImageFix" result="effect1_dropShadow_498_26096"/>
<feBlend mode="normal" in="SourceGraphic" in2="effect1_dropShadow_498_26096" result="shape"/>
</filter>
</defs>
</svg>
