<svg width="28" height="28" viewBox="0 0 28 28" fill="none" xmlns="http://www.w3.org/2000/svg">
<path d="M22.7623 21.7978C21.4763 20.7047 21.4763 19.2901 22.8266 19.2901H25.7845C27.0705 19.2901 27.1348 17.8755 25.8488 16.7181L20.7047 12.2814C19.4187 11.1883 19.4187 9.77366 20.769 9.70936H24.3056C25.6559 9.70936 25.6559 8.29475 24.3699 7.13735L16.5895 0.643004C16.0751 0.192901 15.4964 0 14.8534 0H1.02881C0.450103 0 0 0.450103 0 1.02881C0 1.28601 0.128601 1.60751 0.321502 1.73611L4.62963 5.46554C5.91564 6.55864 5.91564 7.97325 4.56533 8.03755H1.60751C0.321502 8.03755 0.257202 9.45216 1.54321 10.6096L6.68724 15.0463C7.97325 16.1394 7.97325 17.554 6.62294 17.554L3.08642 17.6183C1.80041 17.6183 1.73611 19.0329 3.08642 20.126L10.6739 26.6204L10.8668 26.8133C11.3812 27.1991 11.9599 27.4563 12.6029 27.4563H26.1703C26.8133 27.4563 27.2634 26.9419 27.2634 26.3632C27.2634 26.0417 27.1348 25.7202 26.8776 25.5273L22.7623 21.7978Z" fill="#23C55E"/>
</svg>
